PathFileType	4	(X/Y/Z)	C:\Users\86182\Documents\cortex\Trimmed_M1_H8.trc
DataRate	CameraRate	NumFrames	NumMarkers	Units	OrigDataRate	OrigDataStartFrame	OrigNumFrames
100.00	100.00	       57	2	mm	100.00	181	       901
Frame#	Time	gripper			box			
		X1	Y1	Z1	X2	Y2	Z2	

181	1.800	224.13577	204.14410	213.02040	232.50307	202.84479	71.85358	
182	1.810	224.10815	204.15070	213.47244	232.50009	202.84593	72.29825	
183	1.820	224.08096	204.16324	213.93222	232.50404	202.85498	72.74594	
184	1.830	224.06027	204.17929	214.39703	232.52289	202.86899	73.18870	
185	1.840	224.05194	204.19638	214.86247	232.57050	202.88345	73.61555	
186	1.850	224.05547	204.21336	215.32516	232.65788	202.89531	74.01818	
187	1.860	224.06583	204.22995	215.78284	232.78371	202.90407	74.39649	
188	1.870	224.07858	204.24500	216.23358	232.93253	202.91093	74.75974	
189	1.880	224.09247	204.25671	216.67616				
190	1.890	224.10838	204.26422	217.11041	232.15044	203.00325	76.20675	
191	1.900	224.12639	204.26804	217.53697	232.25452	202.99786	76.50512	
192	1.910	224.14432	204.26926	217.95734	232.33595	202.99078	76.82214	
193	1.920	224.15894	204.26923	218.37381	232.38667	202.98434	77.16830	
194	1.930	224.16776	204.26927	218.78951	232.40370	202.98230	77.54755	
195	1.940	224.16992	204.27061	219.20848	232.38882	202.98743	77.95638	
196	1.950	224.16637	204.27403	219.63470	232.34589	202.99959	78.38789	
197	1.960	224.15865	204.27942	220.07024	232.28020	203.01653	78.83636	
198	1.970	224.14700	204.28656	220.51453	232.19939	203.03667	79.29795	
199	1.980	224.12915	204.29633	220.96587	232.11052	203.06021	79.77000	
200	1.990	224.10155	204.31029	221.42310	232.01640	203.08691	80.25056	
201	2.000	224.06351	204.32822	221.88481	231.92046	203.11401	80.73514	
202	2.010	224.01970	204.34735	222.34773	231.83600	203.13727	81.21245	
203	2.020	223.97696	204.36446	222.80772	231.78342	203.15300	81.66815	
204	2.030	223.93777	204.37776	223.26242	231.77609	203.15852	82.09509	
205	2.040	223.89893	204.38737	223.71133	231.81241	203.15280	82.49712	
206	2.050	223.85748	204.39464	224.15367	231.87750	203.13844	82.88349	
207	2.060	223.81705	204.40038	224.58748				
208	2.070	223.78575	204.40413	225.01115	231.20534	203.08194	84.13135	
209	2.080	223.76759	204.40593	225.42612	231.55940	203.23779	84.35011	
210	2.090	223.75830	204.40753	225.83768	231.87427	203.37398	84.59135	
211	2.100	223.75134	204.41110	226.25223	232.09052	203.46187	84.88720	
212	2.110	223.74635	204.41728	226.67270	232.10544	203.45560	85.28650	
213	2.120	223.74919	204.42557	227.09784	231.76276	203.28783	85.85727	
214	2.130	223.76474	204.43573	227.52681	230.86058	202.86949	86.68294	
215	2.140	223.79131	204.44832	227.96219	229.17535	202.09799	87.85399	
216	2.150	223.82225	204.46397	228.40678	226.51051	200.88065	89.44992	
217	2.160	223.85176	204.48233	228.86003	222.78816	199.17860	91.50111	
218	2.170	223.87808	204.50183	229.31921	218.18912	197.07288	93.92733	
219	2.180	223.90068	204.52110	229.78221	213.24084	194.80586	96.49873	
220	2.190	223.91640	204.53989	230.24811	208.64767	192.70255	98.91101	
221	2.200	223.92104	204.55838	230.71600	204.93787	191.00708	100.94007	
222	2.210	223.91512	204.57626	231.18323	202.29204	189.80284	102.51398	
223	2.220	223.90581	204.59253	231.64490	200.62938	189.05154	103.67007	
224	2.230	223.90089	204.60632	232.09727	199.74443	188.65662	104.49165	
225	2.240	223.90143	204.61754	232.54041	199.39914	188.50684	105.07103	
226	2.250	223.90094	204.62651	232.97583	199.37860	188.50273	105.49393	
227	2.260	223.89275	204.63333	233.40359	199.51904	188.56940	105.83363	
228	2.270	223.87744	204.63789	233.82373	199.71437	188.65913	106.14650	
229	2.280	223.86307	204.64044	234.23874	199.90547	188.74525	106.46786	
230	2.290	223.85883	204.64182	234.65199	200.06216	188.81332	106.81192	
231	2.300	223.86891	204.64281	235.06616	200.17027	188.85669	107.17834	
232	2.310	223.89032	204.64357	235.48349	200.22763	188.87561	107.56137	
233	2.320	223.91667	204.64374	235.90536	200.24420	188.87669	107.95600	
234	2.330	223.94470	204.64355	236.33174	200.23820	188.86964	108.35986	
235	2.340	223.97575	204.64424	236.76331	200.22462	188.86089	108.77069	
236	2.350	224.01065	204.64693	237.20215	200.20566	188.84981	109.18232	
237	2.360	224.04655	204.65176	237.64818	200.17403	188.83217	109.58501	
